<?xml version="1.0" encoding="utf-8"?>
<!-- Generator: Adobe Illustrator 19.2.1, SVG Export Plug-In . SVG Version: 6.00 Build 0)  -->
<svg version="1.1" xmlns="http://www.w3.org/2000/svg" xmlns:xlink="http://www.w3.org/1999/xlink" x="0px" y="0px"
	 viewBox="0 0 100 100" style="enable-background:new 0 0 100 100;" xml:space="preserve">
<style type="text/css">
	.st0{fill:#DCDCDC;}
	.st1{display:none;}
	.st2{display:inline;fill:#513F79;}
	.st3{display:inline;enable-background:new    ;}
	.st4{fill:#FFFFFF;}
	.st5{display:inline;}
	.st6{fill:#3961A3;}
	.st7{fill:#3D3B38;}
	.st8{display:none;fill:#FFFFFF;}
	.st9{fill:#566EAF;}
	.st10{fill:#6B9AD3;}
	.st11{fill:#201602;}
	.st12{fill:url(#SVGID_1_);}
	.st13{fill:url(#SVGID_2_);}
	.st14{fill:url(#SVGID_3_);}
	.st15{opacity:5.000000e-002;}
	.st16{fill:url(#SVGID_4_);}
	.st17{opacity:5.000000e-002;fill:#201602;}
	.st18{display:inline;fill:#DD4D26;}
	.st19{display:inline;fill:#DF6529;}
	.st20{display:inline;fill:#E9E9E9;}
	.st21{display:inline;fill:#FFFFFF;}
	.st22{display:inline;fill:#3B4167;}
	.st23{fill:#3B4167;}
</style>
<g id="Слой_1">
	<rect class="st0" width="100" height="100"/>
</g>
<g id="Слой_2">
	
		<g id="solid" inkscape:version="0.48.1 r9760" sodipodi:docname="twitter_bootstrap_logo.svg" xmlns:cc="http://creativecommons.org/ns#" xmlns:dc="http://purl.org/dc/elements/1.1/" xmlns:inkscape="http://www.inkscape.org/namespaces/inkscape" xmlns:rdf="http://www.w3.org/1999/02/22-rdf-syntax-ns#" xmlns:sodipodi="http://sodipodi.sourceforge.net/DTD/sodipodi-0.dtd" xmlns:svg="http://www.w3.org/2000/svg" class="st1">
		<path id="bg" class="st2" d="M89.7,76.5c0,7.3-6,13.3-13.3,13.3h-53c-7.3,0-13.3-6-13.3-13.3v-53c0-7.3,6-13.3,13.3-13.3h53
			c7.3,0,13.3,6,13.3,13.3V76.5z"/>
		<g id="B" class="st3">
			<path class="st4" d="M31.8,27.5h22.5c4.2,0,7.5,0.9,10,2.9c2.5,1.9,3.8,4.8,3.8,8.6c0,2.3-0.6,4.3-1.7,6c-1.1,1.7-2.8,3-4.9,3.9
				V49c2.9,0.6,5,2,6.5,4.1c1.5,2.1,2.2,4.7,2.2,7.9c0,1.8-0.3,3.5-1,5.1c-0.6,1.6-1.7,2.9-3.1,4.1c-1.4,1.1-3.2,2.1-5.3,2.7
				c-2.2,0.7-4.7,1-7.7,1H31.8L31.8,27.5L31.8,27.5z M39.9,46.9h13.3c1.9,0,3.6-0.5,4.9-1.7c1.3-1.1,1.9-2.7,1.9-4.8
				c0-2.3-0.6-4-1.8-4.9c-1.2-0.9-2.9-1.4-5.1-1.4H39.9L39.9,46.9L39.9,46.9z M39.9,67.3h14.4c2.5,0,4.4-0.6,5.7-1.9
				c1.4-1.3,2.1-3.1,2.1-5.4c0-2.3-0.7-4.1-2.1-5.3c-1.4-1.2-3.3-1.8-5.7-1.8H39.9V67.3z"/>
		</g>
	</g>
	<g id="Слой_3" class="st1">
		<g class="st5">
			<g>
				<path class="st6" d="M29.9,17.6c-4.6,6.6-4,15.3-0.5,22.3c0.1,0.2,0.2,0.3,0.3,0.5c0,0.1,0.1,0.2,0.2,0.3c0,0.1,0.1,0.1,0.1,0.2
					c0.1,0.1,0.1,0.2,0.2,0.3c0.1,0.2,0.2,0.4,0.3,0.6c0.1,0.1,0.1,0.2,0.2,0.3c0.1,0.2,0.3,0.4,0.4,0.6c0.1,0.1,0.1,0.2,0.2,0.3
					c0.2,0.3,0.4,0.5,0.6,0.8c0,0,0,0,0,0c0,0,0.1,0.1,0.1,0.1c0.2,0.2,0.3,0.5,0.5,0.7c0.1,0.1,0.1,0.2,0.2,0.2
					c0.2,0.2,0.3,0.4,0.5,0.6c0.1,0.1,0.1,0.1,0.2,0.2c0.2,0.3,0.4,0.5,0.7,0.8c0,0,0,0,0,0c0,0,0,0,0,0c0.2,0.2,0.4,0.5,0.7,0.7
					c0.1,0.1,0.1,0.1,0.2,0.2c0.2,0.2,0.3,0.4,0.5,0.5c0.1,0.1,0.2,0.1,0.2,0.2c0.2,0.2,0.5,0.5,0.7,0.7c0,0,0,0,0,0
					c0,0,0.1,0.1,0.1,0.1c0.2,0.2,0.4,0.4,0.7,0.6c0.1,0.1,0.2,0.1,0.3,0.2c0.2,0.1,0.4,0.3,0.6,0.4c0.1,0.1,0.2,0.1,0.3,0.2
					c0.2,0.2,0.4,0.3,0.6,0.4c0.1,0.1,0.2,0.1,0.2,0.2c0,0,0,0,0.1,0c0.2,0.1,0.4,0.3,0.6,0.4c0.1,0.1,0.2,0.1,0.3,0.2
					c0.3,0.2,0.6,0.4,0.9,0.6c0.1,0,0.2,0.1,0.3,0.1c0.2,0.1,0.5,0.3,0.7,0.4c0.1,0.1,0.3,0.1,0.4,0.2c0.2,0.1,0.3,0.2,0.5,0.3
					c0,0,0.1,0,0.1,0.1c0.1,0,0.1,0.1,0.2,0.1c0.3,0.1,0.5,0.3,0.8,0.4c0.1,0,0.1,0,0.2,0.1c0.3,0.1,0.6,0.3,0.9,0.4
					c0.1,0,0.2,0.1,0.2,0.1c0.3,0.1,0.6,0.2,0.9,0.3c0,0,0.1,0,0.1,0c0.3,0.1,0.7,0.2,1,0.3c0.1,0,0.2,0.1,0.2,0.1
					c0.3,0.1,0.7,0.2,1,0.3C71,59.4,77.5,41.9,77.5,41.9c-5.4,7.1-15.1,9-24.3,6.9c-0.3-0.1-0.7-0.2-1-0.3c-0.1,0-0.2,0-0.2-0.1
					c-0.3-0.1-0.7-0.2-1-0.3c0,0-0.1,0-0.1-0.1c-0.3-0.1-0.6-0.2-0.9-0.3c-0.1,0-0.2-0.1-0.2-0.1c-0.3-0.1-0.6-0.3-0.9-0.4
					c-0.1,0-0.1-0.1-0.2-0.1c-0.3-0.1-0.5-0.2-0.8-0.4c-0.1,0-0.2-0.1-0.2-0.1c-0.2-0.1-0.4-0.2-0.6-0.3c-0.1-0.1-0.3-0.1-0.4-0.2
					c-0.2-0.1-0.5-0.3-0.7-0.4c-0.1-0.1-0.2-0.1-0.2-0.1c-0.3-0.2-0.6-0.4-1-0.6c-0.1-0.1-0.2-0.1-0.3-0.2c-0.2-0.1-0.5-0.3-0.7-0.4
					c-0.1-0.1-0.1-0.1-0.2-0.2c-0.2-0.2-0.4-0.3-0.6-0.5c-0.1-0.1-0.2-0.1-0.3-0.2c-0.2-0.1-0.4-0.3-0.6-0.5
					c-0.1-0.1-0.2-0.1-0.3-0.2c-0.2-0.2-0.5-0.4-0.7-0.6c0,0-0.1,0-0.1-0.1c-0.3-0.2-0.5-0.5-0.8-0.7c-0.1-0.1-0.1-0.1-0.2-0.2
					c-0.2-0.2-0.4-0.4-0.5-0.5c-0.1-0.1-0.1-0.1-0.2-0.2c-0.2-0.2-0.4-0.5-0.7-0.7c0,0,0,0,0,0c-0.2-0.3-0.5-0.5-0.7-0.8
					c-0.1-0.1-0.1-0.1-0.2-0.2c-0.2-0.2-0.3-0.4-0.5-0.6c-0.1-0.1-0.1-0.2-0.2-0.2c-0.2-0.2-0.4-0.5-0.6-0.7
					c-5.1-6.9-6.9-16.5-2.8-24.3"/>
				<path class="st6" d="M44.2,12c-3.3,4.8-3.2,11.2-0.6,16.3c0.4,0.9,0.9,1.7,1.5,2.5c0.5,0.7,1.1,1.6,1.7,2.1
					c0.2,0.3,0.5,0.5,0.7,0.8c0.1,0.1,0.1,0.1,0.2,0.2c0.2,0.2,0.5,0.5,0.8,0.7c0,0,0,0,0,0c0,0,0,0,0,0c0.3,0.3,0.6,0.5,0.9,0.7
					c0.1,0.1,0.1,0.1,0.2,0.2c0.3,0.2,0.6,0.5,0.9,0.7c0,0,0,0,0,0c0.1,0.1,0.3,0.2,0.4,0.3c0.1,0,0.1,0.1,0.2,0.1
					c0.2,0.1,0.5,0.3,0.7,0.4c0,0,0.1,0,0.1,0.1c0.2,0.1,0.4,0.2,0.6,0.3c0.1,0,0.1,0.1,0.2,0.1c0.1,0.1,0.3,0.1,0.4,0.2
					c0,0,0,0,0.1,0c0.3,0.1,0.6,0.3,0.9,0.4c0.1,0,0.1,0.1,0.2,0.1c0.2,0.1,0.5,0.2,0.7,0.3c0.1,0,0.2,0.1,0.3,0.1
					c0.2,0.1,0.4,0.2,0.7,0.2c0.1,0,0.2,0.1,0.3,0.1c0.3,0.1,0.6,0.2,1,0.3c17.2,2.9,21.2-10.4,21.2-10.4
					c-3.6,5.2-10.5,7.6-17.9,5.7c-0.3-0.1-0.7-0.2-1-0.3c-0.1,0-0.2-0.1-0.3-0.1c-0.2-0.1-0.5-0.2-0.7-0.2c-0.1,0-0.2-0.1-0.3-0.1
					c-0.2-0.1-0.5-0.2-0.7-0.3c-0.1,0-0.1-0.1-0.2-0.1c-0.3-0.1-0.6-0.3-0.9-0.4c-0.2-0.1-0.3-0.2-0.4-0.2c-0.1,0-0.2-0.1-0.3-0.1
					c-0.2-0.1-0.4-0.2-0.6-0.3c0,0-0.1,0-0.1-0.1c-0.2-0.1-0.5-0.3-0.7-0.4c-0.1,0-0.1-0.1-0.2-0.1c-0.2-0.1-0.3-0.2-0.5-0.3
					c-0.3-0.2-0.6-0.4-0.9-0.7c-0.1-0.1-0.1-0.1-0.2-0.2c-3.2-2.6-5.8-6.1-7-10c-1.3-4.1-1-8.7,1.2-12.5"/>
				<path class="st6" d="M56.3,7.8c-2,2.9-2.2,6.5-0.8,9.7c1.4,3.4,4.4,6.1,7.8,7.3c0.1,0.1,0.3,0.1,0.4,0.1c0.1,0,0.1,0,0.2,0.1
					c0.2,0.1,0.4,0.1,0.6,0.2c9.5,1.8,12.1-4.9,12.8-5.9c-2.3,3.3-6.1,4-10.7,2.9c-0.4-0.1-0.8-0.2-1.1-0.3
					c-0.5-0.2-0.9-0.3-1.3-0.6c-0.8-0.4-1.6-0.9-2.3-1.4c-4.2-3.2-6.8-9.2-4-14.1"/>
			</g>
			<g>
				<path class="st7" d="M84.4,74.2l0.2,0.7c0,0.2-0.1,0.3-0.3,0.3"/>
				<path class="st7" d="M71.6,73.1c0,0.2-0.1,0.4-0.1,0.6l-1.4,6.5l1.5-6.9L71.6,73.1z"/>
				<polygon class="st7" points="29.8,77.4 29,80.2 29.8,77.4 				"/>
				<path class="st7" d="M84.5,74.9l-0.4-1.7c-0.3-1.2-1.2-1.8-3.2-1.8h-8.5c-0.2,0-0.4,0.1-0.4,0.3L68.7,87c0,0.2-0.1,0.3,0,0.4
					c0,0.1,0.4,0.1,0.6,0.1h2.9c0.2,0,0.6,0,0.7,0c0.1,0,0.2-0.3,0.2-0.5l1-5.4l1.3-6c0-0.2,0.2-0.3,0.4-0.3l8.4,0
					C84.5,75.2,84.6,75.1,84.5,74.9"/>
				<path class="st7" d="M96.5,68.7c-0.2,0-3.7,0-3.7,0c-0.2,0-0.4,0.2-0.6,0.4l-6.6,9.7c-0.1,0.2-0.2,0.2-0.3,0l-0.5-2.1
					c0-0.2-0.2-0.3-0.4-0.3h-4.2c-0.2,0-0.3,0.2-0.3,0.4l1.9,6.6c0.1,0.2,0.1,0.5,0,0.7L81,87.2c0,0.2,0.1,0.2,0.3,0.2h4.2
					c0.2,0,0.4-0.1,0.4-0.2l0.9-3.4c0-0.2,0.2-0.4,0.3-0.6L97.8,69c0.1-0.2,0.1-0.3-0.1-0.3L96.5,68.7z"/>
				<path class="st7" d="M52.6,71.4h-3.8c-0.2,0-0.4,0.1-0.4,0.3l-1.3,5.9l-1.3,5.6c0,0.2-0.2,0.2-0.4,0.2H43
					c-2.5,0-2.2-1.6-1.7-3.9c0,0,1.6-7.8,1.6-7.8c0-0.2-0.1-0.3-0.3-0.3H39c-0.2,0-0.4,0.1-0.4,0.3l-1.5,7.8c-0.7,4.2-0.7,7.9,4.1,8
					c0.1,0,7.7,0,7.7,0c0.2,0,0.4-0.1,0.4-0.3l1.7-7.8l1.6-7.8C52.6,71.6,52.7,71.4,52.6,71.4z"/>
				<path class="st7" d="M14.7,71.4h-4.1c-0.2,0-0.4,0-0.4,0.2l-0.7,3.2c0,0.2,0.1,0.3,0.3,0.3h3.9c0.2,0,0.4-0.2,0.4-0.4l0.7-3.2
					C14.8,71.6,14.9,71.4,14.7,71.4z"/>
				<path class="st7" d="M9.5,76.2c-0.2,0-0.4,0.2-0.4,0.3L8.5,79l-1.2,5.6c0,0-0.7,3-0.7,3.2c0,0-0.5,2.2-1.9,2.1
					c-0.6,0-1.3-0.2-1.3-0.2h0C3,89.5,3,89.9,3,90.1l-0.8,3.5c0,0.2,0.1,0.4,0.3,0.4c0,0,1.8,0.2,3,0.2h0.2c3.1,0,4.7-1.8,5.7-6.7
					l1.2-5.7l1.1-5.3c0-0.2-0.1-0.4-0.3-0.4"/>
				<path class="st7" d="M62.3,71.3c-6.9,0-8.5,4.2-9.4,8.4c-0.9,4.3-0.8,7.7,6.3,7.7h0.3c2.8,0,6.2,0,6.2,0c0.2,0,0.4-0.2,0.4-0.4
					l0.7-2.7c0-0.2-0.1-0.2-0.3-0.2h-6.4c-2.3,0-3.1-0.7-3.1-2.3c0-0.2,0.2-0.6,0.4-0.6h9.8c0.4,0,0.4-0.3,0.4-0.3
					C68.7,76.4,68.8,71.3,62.3,71.3 M64.1,78.1c0,0.2-0.7,0.2-0.7,0.2l-5.3,0c-0.2,0-0.2-0.3-0.3-0.4c0,0,0-0.2,0-0.3
					c0.4-1.4,1.6-2.3,3.6-2.3c2.2,0,2.7,1.1,2.7,2.3"/>
				<path class="st7" d="M32.6,83c0,0,1.9-4.7,2.4-7.4c0.6-3.6-1.2-8.8-8.2-8.8c-6.9,0-10,5-11.1,10.4c-1.1,5.5,0.4,10.2,7.3,10.2
					l10.5,0c0.2,0,0.4-0.2,0.4-0.3l0.9-3.4c0-0.2-0.1-0.3-0.3-0.3l-0.8,0l-0.8,0C32.7,83.4,32.6,83.3,32.6,83
					C32.6,83.1,32.6,83.1,32.6,83 M29,80.2l-0.8,2.7c-0.1,0.2-0.3,0.3-0.5,0.3h-4.1c-3.1,0-3.8-2.4-3.1-6c0.8-3.6,2.3-5.9,5.3-6.1
					c4.2-0.3,5,2.6,4,6L29,80.2z"/>
			</g>
		</g>
	</g>
	<g>
		<rect x="0.1" y="0.1" class="st8" width="100" height="100"/>
		<g>
			<polygon class="st9" points="75.3,86.9 50.1,93.7 24.8,86.9 18.9,23.6 81.2,23.6 			"/>
			<polygon class="st10" points="50.1,28.8 50.1,88.2 50.1,88.2 70.6,82.7 75.3,28.8 			"/>
			<g>
				<polygon class="st11" points="35.7,14.4 35.7,10.6 41.2,10.6 41.2,6.5 31.6,6.5 31.6,18.1 41.2,18.1 41.2,14.4 				"/>
				<path class="st11" d="M51.1,10.6h3.8V6.5h-9.6c0,0,0,2.1,0,4.1c1.3,1.3,2,1.9,3.8,3.8c-1.1,0-3.8,0-3.8,0v3.8h9.6v-3.8
					L51.1,10.6z"/>
				<path class="st11" d="M64.7,10.6h3.8V6.5h-9.6c0,0,0,2.1,0,4.1c1.3,1.3,2,1.9,3.8,3.8c-1.1,0-3.8,0-3.8,0v3.8h9.6v-3.8
					L64.7,10.6z"/>
			</g>
			<g>
				<polygon class="st4" points="50,44.6 31.9,52.1 32.5,59.6 50,52.1 68.7,44.1 69.4,36.5 				"/>
				<linearGradient id="SVGID_1_" gradientUnits="userSpaceOnUse" x1="40.9922" y1="59.5644" x2="40.9922" y2="44.5656">
					<stop  offset="0.3865" style="stop-color:#C7C7C7;stop-opacity:0"/>
					<stop  offset="1" style="stop-color:#C7C7C7"/>
				</linearGradient>
				<polygon class="st12" points="31.9,52.1 32.5,59.6 50,52.1 50,44.6 				"/>
				<linearGradient id="SVGID_2_" gradientUnits="userSpaceOnUse" x1="59.7323" y1="52.0836" x2="59.7323" y2="36.4931">
					<stop  offset="0.3865" style="stop-color:#C7C7C7;stop-opacity:0"/>
					<stop  offset="1" style="stop-color:#C7C7C7"/>
				</linearGradient>
				<polygon class="st13" points="69.4,36.5 50,44.6 50,52.1 68.7,44.1 				"/>
				<linearGradient id="SVGID_3_" gradientUnits="userSpaceOnUse" x1="31.9715" y1="66.2542" x2="67.9948" y2="66.2542">
					<stop  offset="0" style="stop-color:#E4E3E4"/>
					<stop  offset="1" style="stop-color:#FFFFFF"/>
				</linearGradient>
				<polygon class="st14" points="32,52.1 32.6,59.6 59.4,59.7 58.8,69.6 50,72.1 41.5,69.9 41,63.8 33.1,63.8 34.1,75.7 50.1,80.4 
					65.9,75.8 68,52.1 				"/>
				<g class="st15">
					<polygon class="st11" points="50,52.1 31.9,52.1 32.5,59.6 50,59.6 					"/>
					<polygon class="st11" points="50,72.1 50,72.1 41.5,69.9 40.9,63.8 33.1,63.8 34.1,75.7 50,80.4 					"/>
				</g>
				<linearGradient id="SVGID_4_" gradientUnits="userSpaceOnUse" x1="30.3142" y1="40.3097" x2="69.424" y2="40.3097">
					<stop  offset="0" style="stop-color:#E4E3E4"/>
					<stop  offset="1" style="stop-color:#FFFFFF"/>
				</linearGradient>
				<polygon class="st16" points="30.3,36.5 69.4,36.5 68.7,44.1 31.3,44.1 				"/>
				<polygon class="st17" points="50,36.5 30.3,36.5 31.3,44.1 50,44.1 				"/>
			</g>
		</g>
	</g>
	<g class="st1">
		<polygon class="st18" points="25,86.6 19.4,23.6 81,23.6 75.4,86.5 50.2,93.5 		"/>
		<polygon class="st19" points="50.2,88.2 70.6,82.5 75.4,28.8 50.2,28.8 		"/>
		<polygon class="st20" points="50.2,52.1 40,52.1 39.3,44.2 50.2,44.2 50.2,36.5 50.2,36.5 30.8,36.5 31,38.5 32.9,59.8 50.2,59.8 
					"/>
		<polygon class="st20" points="50.2,72.2 50.2,72.2 41.6,69.8 41,63.7 36.8,63.7 33.3,63.7 34.3,75.8 50.2,80.2 50.2,80.2 		"/>
		<path class="st5" d="M25.1,6.5H29v3.9h3.6V6.5h3.9v11.7h-3.9v-3.9H29v3.9h-3.9L25.1,6.5L25.1,6.5z"/>
		<path class="st5" d="M41.7,10.4h-3.5V6.5h10.8v3.9h-3.5v7.8h-3.9L41.7,10.4L41.7,10.4z"/>
		<path class="st5" d="M50.8,6.5h4.1l2.5,4.1l2.5-4.1H64v11.7h-3.9v-5.8l-2.7,4.2h-0.1l-2.7-4.2v5.8h-3.8V6.5z"/>
		<path class="st5" d="M66,6.5h3.9v7.9h5.5v3.9H66V6.5z"/>
		<polygon class="st21" points="50.2,52.1 50.2,59.8 59.7,59.8 58.8,69.8 50.2,72.2 50.2,80.2 66,75.8 66.1,74.5 67.9,54.2 
			68.1,52.1 66,52.1 		"/>
		<polygon class="st21" points="50.2,36.5 50.2,41.3 50.2,44.2 50.2,44.2 68.8,44.2 68.8,44.2 68.8,44.2 69,42.5 69.3,38.5 
			69.5,36.5 		"/>
	</g>
	<g class="st1">
		<path class="st22" d="M71,76h-8.5c-0.3,0-0.6-0.2-0.6-0.6v-2.1c0-0.3-0.2-0.6-0.6-0.6H49.6c-0.3,0-0.6,0.2-0.6,0.6v2.1
			c0,0.3-0.2,0.6-0.6,0.6h-6.4c-0.3,0-0.6,0.2-0.6,0.6V79c0,0.3,0.2,0.6,0.6,0.6H71c0.3,0,0.6-0.2,0.6-0.6v-2.4
			C71.6,76.3,71.3,76,71,76z"/>
		<g class="st5">
			<path class="st23" d="M85.2,20.3H24.9c-2.1,0-3.8,1.7-3.8,3.8c0,0,0,7.3,0,9.9c0,1.3-0.1,1.5,0.8,1.5c0.5,0,1,0,1.5,0
				c0.7,0,0.6-0.2,0.6-1.5c0-2.7,0-9.9,0-9.9c0-0.5,0.4-0.9,0.9-0.9h60.4c0.5,0,0.9,0.4,0.9,0.9v37.2h-43c0,0-1.5,0-1.5,2
				c0,1.2,0,3.5,0,4.7c0,2,1.6,2,1.6,2h42.1c2.1,0,3.8-1.7,3.8-3.8V24.2C89.1,22.1,87.3,20.3,85.2,20.3z M55.1,66.6
				c-0.9,0-1.7-0.8-1.7-1.7c0-0.9,0.8-1.7,1.7-1.7c0.9,0,1.7,0.8,1.7,1.7C56.8,65.8,56,66.6,55.1,66.6z"/>
			<path class="st23" d="M35.8,39H13.9c-1.4,0-2.5,1.1-2.5,2.5v35.9c0,1.4,1.1,2.5,2.5,2.5h21.8c1.4,0,2.5-1.1,2.5-2.5V41.4
				C38.2,40.1,37.1,39,35.8,39z M22.1,41.5h5.4c0.3,0,0.5,0.2,0.5,0.5c0,0.3-0.2,0.5-0.5,0.5h-5.4c-0.3,0-0.5-0.2-0.5-0.5
				C21.7,41.7,21.9,41.5,22.1,41.5z M24.8,78.1c-0.7,0-1.3-0.6-1.3-1.3c0-0.7,0.6-1.3,1.3-1.3s1.3,0.6,1.3,1.3
				C26.1,77.5,25.5,78.1,24.8,78.1z M36.1,74.3c0,0.3-0.3,0.6-0.6,0.6H14.2c-0.3,0-0.6-0.3-0.6-0.6V44.5c0-0.3,0.3-0.6,0.6-0.6h21.4
				c0.3,0,0.6,0.3,0.6,0.6V74.3z"/>
		</g>
	</g>
</g>
</svg>
