<?xml version="1.0" encoding="utf-8"?>
<!-- Generator: Adobe Illustrator 19.2.1, SVG Export Plug-In . SVG Version: 6.00 Build 0)  -->
<svg version="1.1" xmlns="http://www.w3.org/2000/svg" xmlns:xlink="http://www.w3.org/1999/xlink" x="0px" y="0px"
	 viewBox="0 0 250 50" style="enable-background:new 0 0 250 50;" xml:space="preserve">
<style type="text/css">
	.st0{display:none;}
	.st1{display:inline;fill:#343A40;}
	.st2{fill:#A02C2C;}
	.st3{display:inline;fill:#FFFFFF;}
	.st4{display:inline;fill:#A02C2C;}
	.st5{display:inline;}
	.st6{fill:#FFFFFF;}
	.st7{font-family:'EuropeExt';}
	.st8{font-size:12px;}
</style>
<g id="Слой_2" class="st0">
	<rect x="-0.1" y="0" class="st1" width="250" height="50"/>
</g>
<g id="Слой_3">
	<polygon class="st2" points="14.5,32.6 23.4,17.3 32.4,32.6 	"/>
</g>
<g id="Слой_1">
	<g>
		<g class="st0">
			<polygon class="st3" points="72.9,16.8 68.2,16.8 68.2,33.1 81.7,33.1 81.7,29.8 72.9,29.8 			"/>
			<path class="st3" d="M95.6,16.5c-2.8,0-5.1,0.8-6.6,2.2c-1.6,1.5-2.4,3.6-2.4,6.3c0,1.9,0.4,3.5,1.2,4.8c0.8,1.2,1.8,2.2,3.1,2.7
				c1.3,0.6,2.9,0.9,4.9,0.9c1.9,0,3.6-0.3,4.9-1c1.3-0.7,2.3-1.6,2.9-2.8c0.7-1.2,1-2.8,1-4.7c0-2.6-0.8-4.7-2.3-6.2
				C100.8,17.3,98.5,16.5,95.6,16.5z M98.8,29c-0.8,0.8-1.8,1.3-3.2,1.3c-1.3,0-2.4-0.5-3.2-1.3c-0.8-0.8-1.1-2.2-1.1-4
				c0-1.9,0.4-3.2,1.1-4.1c0.8-0.9,1.8-1.3,3.1-1.3c1.3,0,2.4,0.4,3.2,1.3c0.8,0.8,1.2,2.1,1.2,3.8C100,26.8,99.6,28.2,98.8,29z"/>
			<path class="st3" d="M124.2,29.2l-0.2,0.1c-0.8,0.4-1.5,0.7-2.1,0.9c-0.6,0.2-1.3,0.3-2,0.3c-1.5,0-2.6-0.4-3.5-1.4
				c-0.8-0.9-1.2-2.3-1.2-4.3c0-1.9,0.4-3.2,1.2-4.1c0.8-0.9,1.9-1.4,3.3-1.4c0.9,0,1.7,0.2,2.3,0.6c0.5,0.3,0.9,0.8,1.2,1.3
				l4.5-0.8c-0.3-0.8-0.7-1.6-1.2-2.1c-0.6-0.7-1.4-1.2-2.3-1.5c-1-0.3-2.4-0.5-4.4-0.5c-2,0-3.6,0.3-4.8,0.8
				c-1.5,0.7-2.6,1.7-3.4,3c-0.8,1.3-1.2,2.9-1.2,4.7c0,1.7,0.4,3.2,1.1,4.5c0.7,1.3,1.7,2.3,3,2.9c1.3,0.7,3,1,5.1,1
				c1.7,0,3.2-0.2,4.4-0.6c1.2-0.3,2.6-1,4.1-2v-6.6h-7.8v2.7h3.8V29.2z"/>
			<path class="st3" d="M143.3,16.5c-2.8,0-5.1,0.8-6.6,2.2c-1.6,1.5-2.4,3.6-2.4,6.3c0,1.9,0.4,3.5,1.2,4.8
				c0.8,1.2,1.8,2.2,3.1,2.7c1.3,0.6,2.9,0.9,4.9,0.9c1.9,0,3.6-0.3,4.9-1c1.3-0.7,2.3-1.6,2.9-2.8c0.7-1.2,1-2.8,1-4.7
				c0-2.6-0.8-4.7-2.3-6.2C148.5,17.3,146.2,16.5,143.3,16.5z M146.5,29c-0.8,0.8-1.8,1.3-3.2,1.3c-1.3,0-2.4-0.5-3.2-1.3
				c-0.8-0.8-1.1-2.2-1.1-4c0-1.9,0.4-3.2,1.2-4.1c0.8-0.9,1.8-1.3,3.1-1.3c1.3,0,2.4,0.4,3.2,1.3c0.8,0.8,1.2,2.1,1.2,3.8
				C147.6,26.8,147.3,28.2,146.5,29z"/>
			<polygon class="st4" points="174.5,33.1 179.2,33.1 179.2,20.2 184.9,20.2 184.9,16.8 168.7,16.8 168.7,20.2 174.5,20.2 			"/>
			<polygon class="st4" points="195.7,25.8 204.5,25.8 204.5,23.2 195.7,23.2 195.7,19.6 205.2,19.6 205.2,16.8 191,16.8 191,33.1 
				205.5,33.1 205.5,30.1 195.7,30.1 			"/>
			<polygon class="st4" points="228.6,16.8 223.5,16.8 220.1,22.6 216.6,16.8 211.5,16.8 216.9,24.6 210.9,33.1 216.1,33.1 
				220,27.2 223.9,33.1 229.1,33.1 223.2,24.7 			"/>
			<polygon class="st4" points="239.3,33.1 244,33.1 244,20.2 249.7,20.2 249.7,16.8 233.5,16.8 233.5,20.2 239.3,20.2 			"/>
			<g class="st5">
				<path class="st6" d="M71.5,44.6v-2.4L69.2,39h0.9l1.2,1.7c0.2,0.3,0.4,0.6,0.6,1c0.2-0.3,0.4-0.6,0.6-1l1.1-1.7h0.9l-2.4,3.2
					v2.4H71.5z"/>
				<path class="st6" d="M80.5,41.9c0-0.9,0.3-1.6,0.8-2.2c0.5-0.5,1.2-0.8,2-0.8c0.5,0,1,0.1,1.5,0.4c0.4,0.2,0.8,0.6,1,1
					c0.2,0.4,0.3,0.9,0.3,1.5c0,0.5-0.1,1.1-0.4,1.5c-0.2,0.4-0.6,0.8-1,1c-0.4,0.2-0.9,0.3-1.4,0.3c-0.6,0-1.1-0.1-1.5-0.4
					c-0.4-0.3-0.8-0.6-1-1C80.7,42.8,80.5,42.3,80.5,41.9z M81.3,41.9c0,0.7,0.2,1.2,0.6,1.6c0.4,0.4,0.9,0.6,1.4,0.6
					c0.6,0,1.1-0.2,1.5-0.6c0.4-0.4,0.6-1,0.6-1.7c0-0.5-0.1-0.9-0.2-1.2c-0.2-0.3-0.4-0.6-0.7-0.8c-0.3-0.2-0.7-0.3-1.1-0.3
					c-0.6,0-1,0.2-1.4,0.5C81.5,40.4,81.3,41,81.3,41.9z"/>
				<path class="st6" d="M96.5,39h0.8v3.2c0,0.6-0.1,1-0.2,1.3c-0.1,0.3-0.4,0.6-0.7,0.8c-0.3,0.2-0.8,0.3-1.4,0.3
					c-0.6,0-1-0.1-1.4-0.3c-0.4-0.2-0.6-0.4-0.8-0.8c-0.1-0.3-0.2-0.8-0.2-1.4V39h0.8v3.2c0,0.5,0.1,0.8,0.1,1.1
					c0.1,0.2,0.3,0.4,0.5,0.5c0.2,0.1,0.5,0.2,0.8,0.2c0.6,0,1-0.1,1.2-0.4c0.3-0.3,0.4-0.7,0.4-1.4V39z"/>
				<path class="st6" d="M104.1,44.6V39h2.6c0.5,0,0.9,0,1.2,0.2c0.3,0.1,0.5,0.3,0.7,0.5c0.2,0.3,0.2,0.5,0.2,0.8
					c0,0.4-0.1,0.7-0.4,1c-0.3,0.3-0.7,0.5-1.3,0.5c0.2,0.1,0.4,0.2,0.5,0.3c0.2,0.2,0.4,0.4,0.7,0.7l1,1.5h-1l-0.8-1.2
					c-0.2-0.3-0.4-0.6-0.6-0.7c-0.2-0.2-0.3-0.3-0.4-0.4c-0.1-0.1-0.2-0.1-0.4-0.1c-0.1,0-0.2,0-0.4,0h-0.9v2.5H104.1z M104.9,41.5
					h1.7c0.4,0,0.6,0,0.8-0.1c0.2-0.1,0.4-0.2,0.5-0.3c0.1-0.2,0.2-0.3,0.2-0.5c0-0.3-0.1-0.5-0.3-0.7c-0.2-0.2-0.5-0.2-1-0.2h-1.9
					V41.5z"/>
				<path class="st6" d="M124.6,44.6v-4.9h-2V39h4.7v0.7h-2v4.9H124.6z"/>
				<path class="st6" d="M132.3,44.6l2.3-5.6h0.8l2.4,5.6H137l-0.7-1.7h-2.5l-0.7,1.7H132.3z M134,42.3h2l-0.6-1.5
					c-0.2-0.5-0.3-0.9-0.4-1.1c-0.1,0.4-0.2,0.7-0.3,1.1L134,42.3z"/>
				<path class="st6" d="M146.7,42.4v-0.6l2.5,0v2.1c-0.4,0.3-0.8,0.5-1.2,0.7c-0.4,0.1-0.8,0.2-1.2,0.2c-0.6,0-1.1-0.1-1.6-0.3
					c-0.5-0.2-0.8-0.6-1.1-1c-0.2-0.5-0.4-1-0.4-1.5c0-0.5,0.1-1.1,0.4-1.5c0.2-0.5,0.6-0.8,1-1.1c0.5-0.2,1-0.3,1.6-0.3
					c0.4,0,0.8,0.1,1.2,0.2c0.3,0.1,0.6,0.3,0.8,0.6c0.2,0.2,0.3,0.5,0.4,0.9l-0.7,0.2c-0.1-0.3-0.2-0.5-0.3-0.7
					c-0.1-0.2-0.3-0.3-0.6-0.4c-0.2-0.1-0.5-0.1-0.8-0.1c-0.4,0-0.7,0.1-0.9,0.2c-0.3,0.1-0.5,0.3-0.6,0.4c-0.2,0.2-0.3,0.4-0.4,0.6
					c-0.1,0.3-0.2,0.7-0.2,1.1c0,0.5,0.1,0.9,0.3,1.2c0.2,0.3,0.4,0.6,0.8,0.7c0.3,0.2,0.7,0.3,1.1,0.3c0.3,0,0.7-0.1,1-0.2
					c0.3-0.1,0.6-0.3,0.7-0.4v-1H146.7z"/>
				<path class="st6" d="M155.8,44.6V39h0.8v4.9h2.9v0.7H155.8z"/>
				<path class="st6" d="M166,44.6V39h0.8v5.6H166z"/>
				<path class="st6" d="M173.6,44.6V39h0.8l3.1,4.4V39h0.8v5.6h-0.8l-3.1-4.4v4.4H173.6z"/>
				<path class="st6" d="M185.1,44.6V39h4.3v0.7h-3.5v1.7h3.3V42h-3.3v1.9h3.6v0.7H185.1z"/>
				<path class="st6" d="M203.8,44.6V39h0.8v2.3h3.1V39h0.8v5.6h-0.8V42h-3.1v2.6H203.8z"/>
				<path class="st6" d="M215.2,44.6V39h4.3v0.7H216v1.7h3.3V42H216v1.9h3.6v0.7H215.2z"/>
				<path class="st6" d="M226.2,44.6V39h2.6c0.5,0,0.9,0,1.2,0.2c0.3,0.1,0.5,0.3,0.7,0.5c0.2,0.3,0.2,0.5,0.2,0.8
					c0,0.4-0.1,0.7-0.4,1c-0.3,0.3-0.7,0.5-1.3,0.5c0.2,0.1,0.4,0.2,0.5,0.3c0.2,0.2,0.4,0.4,0.6,0.7l1,1.5h-1l-0.8-1.2
					c-0.2-0.3-0.4-0.6-0.6-0.7c-0.1-0.2-0.3-0.3-0.4-0.4c-0.1-0.1-0.2-0.1-0.4-0.1c-0.1,0-0.2,0-0.4,0H227v2.5H226.2z M227,41.5h1.7
					c0.4,0,0.6,0,0.8-0.1c0.2-0.1,0.4-0.2,0.5-0.3c0.1-0.2,0.2-0.3,0.2-0.5c0-0.3-0.1-0.5-0.3-0.7c-0.2-0.2-0.5-0.2-1-0.2H227V41.5z
					"/>
				<path class="st6" d="M237.6,44.6V39h4.3v0.7h-3.5v1.7h3.3V42h-3.3v1.9h3.6v0.7H237.6z"/>
			</g>
		</g>
	</g>
	<g>
		<polygon class="st2" points="58.4,32.5 58.3,32.6 38.4,32.6 29.4,17.3 19.4,0 19.4,0 39.4,0 39.5,0 		"/>
		<polygon class="st6" points="29.4,17.3 20.5,32.6 10.3,50 0.6,32.8 0.4,32.5 19.4,0 		"/>
	</g>
</g>
<g id="время_собирать_мебель" class="st0">
	<text transform="matrix(1.0512 0 0 1 61.6323 45.748)" class="st3 st7 st8">время собирать мебель</text>
</g>
<g id="Слой_5">
	<g>
		<path class="st2" d="M171.7,29.5h5.4V17.4h3.8v12.1h5.4V17.4h3.8v12.1h1.8v6.4h-3.7v-3.2h-20.4V17.4h3.8V29.5z"/>
		<path class="st2" d="M205.7,17.4v10.8l7.6-10.8h4.7v15.2h-3.7V21.8l-7.7,10.9H202V17.4H205.7z"/>
		<path class="st2" d="M232.9,23.3l6.4-5.9h4.9l-6.7,5.9l7.5,9.3h-4.7l-5.5-7l-1.9,1.7v5.3h-3.8V17.4h3.8V23.3z"/>
	</g>
	<g>
		<path class="st6" d="M75.3,23c-0.5-1.9-2-2.8-4.6-2.8c-3,0-4.9,1.8-4.9,4.9s1.9,4.9,4.9,4.9c2.7,0,4.3-1.2,4.6-3.2h4.2
			c-0.4,3.8-3.8,6.3-8.8,6.3c-5.6,0-9.1-3.2-9.1-8c0-4.8,3.5-8,9.1-8c5,0,8.3,2.5,8.7,6H75.3z"/>
		<path class="st6" d="M102.6,17.4v3.1h-9v2.5h5.4c3.2,0,5.1,1.9,5.1,4.8c0,2.9-1.8,4.7-5.1,4.7h-9.3V17.4H102.6z M93.7,29.5h4.1
			c1.9,0,2.6-0.3,2.6-1.7c0-1.4-0.9-1.6-2.8-1.6h-3.9V29.5z"/>
		<path class="st6" d="M131.9,25c0,4.8-3.5,8-9.1,8c-5.6,0-9.1-3.2-9.1-8c0-4.8,3.5-8,9.1-8C128.4,17,131.9,20.2,131.9,25z
			 M117.9,25c0,3,1.9,4.9,4.9,4.9c3,0,4.9-1.8,4.9-4.9c0-3.1-1.9-4.9-4.9-4.9C119.8,20.1,117.9,22,117.9,25z"/>
		<path class="st6" d="M142.2,17.4h9c3.6,0,5.6,2,5.6,5.2c0,3.2-2,5.3-5.6,5.3H146v4.8h-3.8V17.4z M146,24.7h3.5
			c2.4,0,3.5-0.4,3.5-2.1c0-1.7-1-2.1-3.2-2.1H146V24.7z"/>
	</g>
</g>
</svg>
